<svg width="256" height="112" viewBox="0 0 256 112" fill="none" xmlns="http://www.w3.org/2000/svg">
<path d="M159.414 48.6097C157.67 58.3685 159.371 68.3779 164.216 76.8755C169.061 85.3731 176.741 91.8139 185.902 95.0636C195.063 98.3133 205.118 98.1635 214.297 94.6407C223.476 91.118 231.19 84.4482 236.081 75.8058C240.972 67.1635 242.725 57.1027 241.034 47.3951C239.342 37.6874 234.312 28.9553 226.831 22.7365C219.351 16.5176 209.898 13.211 200.137 13.3987C190.377 13.5865 180.935 17.2566 173.474 23.7626" stroke="white" style="stroke:white;stroke:white;stroke-opacity:1;"/>
<path d="M12.736 73H2.144V35.496H6.368C7.49867 35.496 9.20533 35.4533 11.488 35.368C13.7707 35.2613 15.648 35.208 17.12 35.208C21.2587 35.208 24.3947 36.3067 26.528 38.504C28.6613 40.7013 29.728 43.9973 29.728 48.392C29.728 51.0373 29.376 53.448 28.672 55.624C27.9893 57.7787 27.0613 59.5493 25.888 60.936C24.7147 62.3227 23.3813 63.3893 21.888 64.136C20.3947 64.8827 18.816 65.256 17.152 65.256C16.9387 65.256 16.7147 65.256 16.48 65.256C16.2667 65.256 16.064 65.256 15.872 65.256C15.7013 65.2347 15.488 65.224 15.232 65.224C14.9973 65.2027 14.8053 65.192 14.656 65.192C14.528 65.1707 14.336 65.16 14.08 65.16C13.8453 65.1387 13.6853 65.128 13.6 65.128C13.5147 65.128 13.3547 65.1173 13.12 65.096C12.8853 65.0747 12.7573 65.064 12.736 65.064V73ZM19.232 46.984C19.232 45.4053 18.8053 44.1253 17.952 43.144C17.0987 42.1627 15.872 41.672 14.272 41.672H12.736V58.312H13.92C15.6053 58.312 16.9067 57.7467 17.824 56.616C18.7627 55.4853 19.232 53.8533 19.232 51.72V46.984ZM43.312 73.672C41.6693 73.672 40.1333 73.5227 38.704 73.224C37.296 72.9467 36.112 72.5733 35.152 72.104C34.192 71.6347 33.4027 71.1867 32.784 70.76C32.1867 70.3333 31.6853 69.9067 31.28 69.48L32.08 61.704C32.9547 62.8773 34.128 63.9013 35.6 64.776C37.072 65.6293 38.6613 66.056 40.368 66.056C42.0747 66.056 43.3013 65.8747 44.048 65.512C44.816 65.1493 45.2 64.488 45.2 63.528C45.2 62.504 44.7627 61.6293 43.888 60.904C43.0347 60.1787 41.552 59.304 39.44 58.28C38.672 57.896 38.0213 57.5547 37.488 57.256C36.9547 56.936 36.24 56.424 35.344 55.72C34.4693 54.9947 33.7547 54.248 33.2 53.48C32.6453 52.6907 32.1547 51.688 31.728 50.472C31.3013 49.2347 31.088 47.912 31.088 46.504C31.088 38.888 35.3867 35.08 43.984 35.08C45.3493 35.08 46.6293 35.2293 47.824 35.528C49.04 35.8053 49.9893 36.1147 50.672 36.456C51.3547 36.7973 51.9733 37.2027 52.528 37.672C53.104 38.12 53.4667 38.44 53.616 38.632C53.7653 38.8027 53.872 38.9413 53.936 39.048L52.336 45.224C51.504 44.2427 50.4587 43.5173 49.2 43.048C47.9627 42.5573 46.7787 42.312 45.648 42.312C42.9173 42.312 41.552 43.1653 41.552 44.872C41.552 45.32 41.6373 45.7253 41.808 46.088C41.9787 46.4507 42.256 46.7813 42.64 47.08C43.024 47.3787 43.376 47.6347 43.696 47.848C44.0373 48.0613 44.496 48.328 45.072 48.648C45.6693 48.9467 46.1173 49.192 46.416 49.384C49.5307 50.7067 51.8133 52.2747 53.264 54.088C54.736 55.9013 55.472 58.1093 55.472 60.712C55.472 64.936 54.4267 68.1573 52.336 70.376C50.2667 72.5733 47.2587 73.672 43.312 73.672ZM95.3865 70.344L95.0985 70.696C94.8852 70.9093 94.5225 71.1867 94.0105 71.528C93.5198 71.848 92.9225 72.1787 92.2185 72.52C91.5358 72.84 90.6185 73.1067 89.4665 73.32C88.3145 73.5547 87.0772 73.672 85.7545 73.672C82.9598 73.672 80.5705 73.2133 78.5865 72.296C76.6025 71.3573 75.0452 70.0027 73.9145 68.232C72.8052 66.44 72.0052 64.424 71.5145 62.184C71.0238 59.9227 70.7785 57.3093 70.7785 54.344C70.7785 51.1867 71.0238 48.4667 71.5145 46.184C72.0052 43.88 72.8158 41.864 73.9465 40.136C75.0985 38.3867 76.6772 37.0747 78.6825 36.2C80.6878 35.3253 83.1305 34.888 86.0105 34.888C87.3332 34.888 88.5705 35.0053 89.7225 35.24C90.8958 35.4747 91.8132 35.7413 92.4745 36.04C93.1572 36.3387 93.7652 36.68 94.2985 37.064C94.8532 37.448 95.1945 37.7147 95.3225 37.864C95.4718 38.0133 95.5785 38.1307 95.6425 38.216L95.1625 45.576H90.2985L88.6345 41.768C88.2505 41.6613 87.9305 41.608 87.6745 41.608C86.2452 41.608 85.1465 41.9387 84.3785 42.6C83.6105 43.24 83.0238 44.5093 82.6185 46.408C82.2132 48.2853 82.0105 50.9947 82.0105 54.536C82.0105 56.648 82.1385 58.4933 82.3945 60.072C82.6718 61.6507 83.0025 62.8667 83.3865 63.72C83.7705 64.552 84.2292 65.224 84.7625 65.736C85.2958 66.248 85.7758 66.5787 86.2025 66.728C86.6292 66.856 87.0878 66.92 87.5785 66.92C88.6665 66.92 89.8078 66.792 91.0025 66.536C92.1972 66.2587 93.1785 65.8427 93.9465 65.288L95.3865 70.344ZM109.086 58.504C109.086 62.0453 109.352 64.5093 109.886 65.896C110.44 67.2827 111.4 67.976 112.766 67.976C113.768 67.976 114.526 67.7307 115.038 67.24C115.55 66.728 115.934 65.6933 116.19 64.136C116.467 62.5573 116.606 60.2 116.606 57.064V49.352C116.606 46.3013 116.307 44.0293 115.71 42.536C115.112 41.0427 114.131 40.296 112.766 40.296C111.4 40.296 110.44 41.032 109.886 42.504C109.352 43.9547 109.086 46.6107 109.086 50.472V58.504ZM112.094 73.672C110.323 73.672 108.723 73.512 107.294 73.192C105.886 72.872 104.67 72.424 103.646 71.848C102.622 71.272 101.726 70.536 100.958 69.64C100.211 68.744 99.6031 67.784 99.1337 66.76C98.6858 65.736 98.3231 64.5413 98.0457 63.176C97.7684 61.7893 97.5764 60.4133 97.4697 59.048C97.3631 57.6613 97.3098 56.104 97.3098 54.376C97.3098 51.816 97.4377 49.5867 97.6937 47.688C97.9711 45.7893 98.4724 44.008 99.1977 42.344C99.9231 40.6587 100.883 39.2933 102.078 38.248C103.294 37.2027 104.851 36.3813 106.75 35.784C108.67 35.1867 110.931 34.888 113.534 34.888C115.326 34.888 116.936 35.0587 118.366 35.4C119.795 35.72 121.022 36.168 122.046 36.744C123.07 37.32 123.955 38.0667 124.702 38.984C125.47 39.9013 126.078 40.8827 126.526 41.928C126.995 42.952 127.368 44.1573 127.646 45.544C127.923 46.9307 128.115 48.3067 128.222 49.672C128.328 51.0373 128.382 52.584 128.382 54.312C128.382 56.872 128.243 59.1013 127.966 61C127.688 62.8987 127.187 64.68 126.462 66.344C125.736 67.9867 124.766 69.3307 123.55 70.376C122.334 71.4 120.766 72.2107 118.846 72.808C116.947 73.384 114.696 73.672 112.094 73.672ZM144.346 67.752C145.968 67.752 147.205 66.7493 148.058 64.744C148.933 62.7387 149.37 59.432 149.37 54.824V51.592C149.37 48.2213 148.965 45.6187 148.155 43.784C147.344 41.9493 146.192 41.032 144.699 41.032H142.298V67.752H144.346ZM145.338 73.224C144.57 73.224 143.376 73.1813 141.755 73.096C140.155 73.032 138.501 73 136.795 73H131.706V35.496H136.795C138.224 35.4747 139.781 35.4213 141.466 35.336C143.152 35.2507 144.474 35.208 145.434 35.208C150.875 35.208 154.768 36.7333 157.115 39.784C159.483 42.8347 160.667 47.2827 160.667 53.128C160.667 55.112 160.528 57 160.25 58.792C159.995 60.584 159.504 62.3867 158.778 64.2C158.053 65.992 157.136 67.5387 156.026 68.84C154.917 70.1413 153.445 71.1973 151.61 72.008C149.776 72.8187 147.685 73.224 145.338 73.224ZM186.363 73H163.675V35.496H185.883L185.243 43.048L174.267 42.728V49.96H182.907V57.448L174.267 56.808V65.32L186.363 65V73Z" fill="white" style="fill:white;fill:white;fill-opacity:1;"/>
</svg>
