<svg width="20" height="25" viewBox="0 0 20 25" fill="none" xmlns="http://www.w3.org/2000/svg">
<path d="M8.97229 23.8347C1.40469 13.8271 0 12.8 0 9.12204C0 4.08406 4.47714 0 10 0C15.5229 0 20 4.08406 20 9.12204C20 12.8 18.5953 13.8271 11.0277 23.8347C10.5311 24.4891 9.46885 24.489 8.97229 23.8347ZM10 12.9229C12.3012 12.9229 14.1667 11.2212 14.1667 9.12204C14.1667 7.02288 12.3012 5.32119 10 5.32119C7.6988 5.32119 5.83333 7.02288 5.83333 9.12204C5.83333 11.2212 7.6988 12.9229 10 12.9229Z" fill="white" style="fill:white;fill:white;fill-opacity:1;"/>
</svg>
